<svg width="25" height="24" viewBox="0 0 25 24" fill="none" xmlns="http://www.w3.org/2000/svg">
<path d="M13.0019 24H12.9491C6.34885 24 0.979004 18.6286 0.979004 12.0264V11.9736C0.979004 5.37144 6.34885 0 12.9491 0H13.0019C19.6021 0 24.9719 5.37144 24.9719 11.9736V12.0264C24.9719 18.6286 19.6021 24 13.0019 24ZM12.9491 0.812375C6.79634 0.812375 1.79114 5.81906 1.79114 11.9736V12.0264C1.79114 18.181 6.79634 23.1876 12.9491 23.1876H13.0019C19.1546 23.1876 24.1598 18.181 24.1598 12.0264V11.9736C24.1598 5.81906 19.1546 0.812375 13.0019 0.812375H12.9491Z" fill="#E1E2E6"/>
<path d="M14.5897 9.30903V11.8347H17.7132L17.2186 15.2369H14.5897V23.0755C14.0626 23.1487 13.5233 23.1868 12.976 23.1868C12.3441 23.1868 11.7236 23.1365 11.1194 23.039V15.2369H8.23877V11.8347H11.1194V8.74443C11.1194 6.82722 12.673 5.27234 14.5905 5.27234V5.27397C14.5962 5.27397 14.601 5.27234 14.6067 5.27234H17.714V8.21476H15.6836C15.0802 8.21476 14.5905 8.70462 14.5905 9.30821L14.5897 9.30903Z" fill="#E1E2E6"/>
</svg>
