<svg width="24" height="24" viewBox="0 0 24 24" fill="none" xmlns="http://www.w3.org/2000/svg">
<path d="M12.016 24H11.9632C5.36302 24 -0.00683594 18.6286 -0.00683594 12.0264V11.9736C-0.00683594 5.37143 5.36302 0 11.9632 0H12.016C18.6162 0 23.9861 5.37143 23.9861 11.9736V12.0264C23.9861 18.6286 18.6162 24 12.016 24ZM11.9632 0.812375C5.8105 0.812375 0.8053 5.81905 0.8053 11.9736V12.0264C0.8053 18.181 5.8105 23.1876 11.9632 23.1876H12.016C18.1688 23.1876 23.174 18.181 23.174 12.0264V11.9736C23.174 5.81905 18.1688 0.812375 12.016 0.812375H11.9632Z" fill="#E1E2E6"/>
<path d="M5.92744 8.11319C5.62207 7.82967 5.47021 7.47873 5.47021 7.06117C5.47021 6.64361 5.62289 6.27721 5.92744 5.99288C6.2328 5.70936 6.62588 5.5672 7.10747 5.5672C7.58907 5.5672 7.96672 5.70936 8.27127 5.99288C8.57663 6.2764 8.72849 6.63305 8.72849 7.06117C8.72849 7.48929 8.57582 7.82967 8.27127 8.11319C7.96591 8.39671 7.57851 8.53887 7.10747 8.53887C6.63643 8.53887 6.2328 8.39671 5.92744 8.11319ZM8.47186 9.73956V18.432H5.72603V9.73956H8.47186Z" fill="#E1E2E6"/>
<path d="M17.6123 10.598C18.2108 11.2479 18.5097 12.1399 18.5097 13.2756V18.2782H15.9019V13.6282C15.9019 13.0555 15.7533 12.6103 15.4569 12.2935C15.1605 11.9766 14.7609 11.8174 14.2606 11.8174C13.7603 11.8174 13.3608 11.9758 13.0643 12.2935C12.7679 12.6103 12.6193 13.0555 12.6193 13.6282V18.2782H9.99609V9.71498H12.6193V10.8507C12.8848 10.4721 13.243 10.1732 13.6929 9.953C14.1429 9.73284 14.6488 9.62317 15.2116 9.62317C16.2138 9.62317 17.0146 9.94812 17.6123 10.598Z" fill="#E1E2E6"/>
</svg>
