<svg width="308" height="64" viewBox="0 0 308 64" fill="none" xmlns="http://www.w3.org/2000/svg">
<path d="M0.315918 20.1856L22.2353 1.0301C22.9982 0.366884 23.9654 0 24.9599 0C27.2962 0 29.1898 1.96142 29.1898 4.38144V58.8989C29.1898 61.4671 27.1804 63.5555 24.6942 63.5555H19.245C16.7657 63.5555 14.7495 61.4742 14.7495 58.8989V20.1856H0.315918Z" fill="white"/>
<path d="M29.1898 30.4019L51.1092 11.5992C51.8721 10.943 52.8257 10.5902 53.8202 10.5902C56.1633 10.5902 58.0637 12.5587 58.0637 14.9858V58.5461C58.0637 61.3119 55.8977 63.5555 53.2276 63.5555H48.4595C45.7894 63.5555 43.6234 61.3119 43.6234 58.5461V30.4019H29.1898Z" fill="white"/>
<path d="M86.9376 48.5274V25.7171C86.9376 23.9109 85.9431 22.1965 84.3288 21.5121C82.8167 20.87 81.1683 21.1734 79.9831 22.1894L58.0637 40.9922H72.4973V58.0946C72.4973 61.1143 74.8608 63.5555 77.7693 63.5555H100.67L89.165 53.5015C87.7482 52.2668 86.9376 50.4465 86.9376 48.5274Z" fill="white"/>
<path d="M167.368 63.4144H192.55V57.3749H173.927V45.6699H189.226V39.7434H173.927V28.6169H192.55V22.5774H167.368V63.4144Z" fill="white"/>
<path d="M226.035 43.1088C227.173 41.0275 227.752 38.4734 227.752 35.503C227.752 32.5327 227.254 30.0209 226.267 28.1371C225.259 26.2181 223.733 24.7929 221.73 23.8968C219.775 23.0219 217.323 22.5845 214.449 22.5845H199.423V63.4215H205.975V48.8378H214.939L221.206 63.4215H228.385L221.274 47.3491C223.385 46.4672 224.986 45.042 226.049 43.1159L226.035 43.1088ZM220.409 39.44C220.014 40.5265 219.36 41.352 218.413 41.9729C217.466 42.5938 216.152 42.9113 214.503 42.9113H205.975V28.5675H214.449C216.737 28.5675 218.427 29.139 219.462 30.2679C220.511 31.4038 221.035 33.1888 221.035 35.5665C221.035 37.0129 220.824 38.3182 220.409 39.447V39.44Z" fill="white"/>
<path d="M242.001 31.5096C242.628 30.3526 243.486 29.52 244.637 28.9626C246.408 28.1019 249.024 27.9396 252.498 28.2712C253.696 28.3841 254.875 28.5111 256.033 28.6451C257.177 28.7792 258.138 28.9203 258.894 29.0685L259.588 29.2025L259.874 23.3959L259.364 23.283C258.512 23.0925 257.484 22.8879 256.319 22.6762C255.147 22.4646 253.874 22.2882 252.532 22.1541C251.183 22.0201 249.841 21.9495 248.533 21.9495C245.543 21.9495 243.05 22.4011 241.129 23.2971C239.181 24.2073 237.628 25.5831 236.511 27.3822C235.414 29.1531 234.652 31.3897 234.229 34.0284C233.821 36.6107 233.609 39.6587 233.609 43.0876C233.609 46.5166 233.814 49.4375 234.229 52.0057C234.645 54.6233 235.401 56.8458 236.477 58.6167C237.574 60.4229 239.133 61.7916 241.102 62.6806C243.036 63.5555 245.516 64 248.472 64C249.739 64 251.054 63.9436 252.375 63.8236C253.69 63.7107 254.97 63.5555 256.189 63.358C257.402 63.1675 258.465 62.9699 259.35 62.7794L259.861 62.6665L259.65 56.8034L258.955 56.9234C257.674 57.1492 256.115 57.3608 254.316 57.5513C252.518 57.7418 250.836 57.8335 249.303 57.8335C247.369 57.8335 245.782 57.5513 244.596 57.001C243.438 56.4577 242.58 55.6463 241.974 54.5175C241.347 53.3463 240.918 51.8152 240.687 49.9526C240.448 48.0406 240.332 45.7334 240.332 43.0876C240.332 40.4418 240.455 38.0148 240.687 36.1027C240.911 34.2401 241.354 32.695 242.001 31.5096Z" fill="white"/>
<path d="M273.613 22.5774L263.028 63.4144H269.622L272.115 53.9389H286.582L289.075 63.4144H295.723L285.138 22.5774H273.606H273.613ZM273.497 47.9559L278.49 28.4476H280.261L285.254 47.9559H273.497Z" fill="white"/>
<path d="M304.408 22.5774C302.603 22.5774 301.132 24.1014 301.132 25.9711V63.4144H307.684V25.9711C307.684 24.1014 306.213 22.5774 304.408 22.5774Z" fill="white"/>
<path d="M158.601 54.4963L158.574 46.5589V22.5845H148.255L138.943 52.4996L129.584 22.5845H119.319V63.4215H125.872V30.9099L134.727 58.9342C135.326 60.8321 137.022 62.1021 138.95 62.1021C140.878 62.1021 142.567 60.8321 143.173 58.9412L152.028 31.0793V63.4285H155.883L158.615 63.4497H166.789L159.943 57.4667C159.099 56.7329 158.615 55.6463 158.615 54.5104L158.601 54.4963Z" fill="white"/>
</svg>
