<svg width="24" height="24" viewBox="0 0 24 24" fill="none" xmlns="http://www.w3.org/2000/svg">
<path d="M12.0229 24H11.9701C5.36985 24 0 18.6286 0 12.0264V11.9736C0 5.37142 5.36985 0 11.9701 0H12.0229C18.6231 0 23.9929 5.37142 23.9929 11.9736V12.0264C23.9929 18.6286 18.6231 24 12.0229 24ZM11.9701 0.812375C5.81733 0.812375 0.812136 5.81904 0.812136 11.9736V12.0264C0.812136 18.181 5.81733 23.1876 11.9701 23.1876H12.0229C18.1756 23.1876 23.1808 18.181 23.1808 12.0264V11.9736C23.1808 5.81904 18.1756 0.812375 12.0229 0.812375H11.9701Z" fill="#E1E2E6"/>
<path d="M14.2562 15.3915C11.2895 15.3915 8.87581 12.9763 8.875 10.0087C8.87581 9.25644 9.48817 8.64471 10.2386 8.64471C10.3157 8.64471 10.3921 8.65121 10.4652 8.66421C10.626 8.69102 10.7787 8.74545 10.9192 8.8275C10.9395 8.83968 10.9533 8.85919 10.9565 8.88194L11.27 10.8584C11.274 10.882 11.2667 10.9047 11.2513 10.9218C11.0783 11.1135 10.8574 11.2516 10.6113 11.3207L10.4928 11.354L10.5374 11.4685C10.9419 12.4986 11.7654 13.3216 12.796 13.7278L12.9105 13.7733L12.9438 13.6546C13.0128 13.4085 13.1509 13.1875 13.3426 13.0145C13.3564 13.0015 13.375 12.995 13.3937 12.995C13.3978 12.995 13.4019 12.995 13.4067 12.9958L15.3826 13.3094C15.4062 13.3134 15.4257 13.3264 15.4379 13.3468C15.5191 13.4873 15.5735 13.6408 15.6011 13.8017C15.6141 13.8732 15.6198 13.9487 15.6198 14.0275C15.6198 14.779 15.0083 15.3907 14.2562 15.3915Z" fill="#E1E2E6"/>
<path d="M19.5174 11.3489C19.3574 9.54056 18.5291 7.86301 17.185 6.62576C15.8328 5.3812 14.0786 4.69556 12.2439 4.69556C8.21736 4.69556 4.94121 7.97267 4.94121 12.0004C4.94121 13.3522 5.31397 14.6691 6.01972 15.8162L4.4458 19.3013L9.48511 18.7643C10.3614 19.1233 11.2889 19.3053 12.2431 19.3053C12.4941 19.3053 12.7515 19.2923 13.0098 19.2655C13.2372 19.2411 13.467 19.2054 13.6928 19.1599C17.0648 18.4783 19.5264 15.4847 19.5459 12.0394V12.0004C19.5459 11.7811 19.5361 11.5617 19.5166 11.3497L19.5174 11.3489ZM9.67921 17.2346L6.89115 17.5319L7.72359 15.687L7.5571 15.4636C7.54492 15.4473 7.53274 15.4311 7.51893 15.4124C6.79613 14.414 6.41442 13.2344 6.41442 12.0012C6.41442 8.78586 9.0295 6.17001 12.2439 6.17001C15.2553 6.17001 17.8079 8.52022 18.054 11.5203C18.067 11.6812 18.0743 11.8428 18.0743 12.0021C18.0743 12.0475 18.0735 12.0922 18.0726 12.1402C18.0109 14.8299 16.1324 17.1143 13.5044 17.696C13.3038 17.7407 13.0983 17.7748 12.8936 17.7967C12.6809 17.8211 12.4624 17.8333 12.2456 17.8333C11.4732 17.8333 10.7228 17.6838 10.0138 17.3881C9.93503 17.3564 9.85788 17.3223 9.7856 17.2874L9.68002 17.2362L9.67921 17.2346Z" fill="#E1E2E6"/>
</svg>
