<svg width="25" height="24" viewBox="0 0 25 24" fill="none" xmlns="http://www.w3.org/2000/svg">
<path d="M12.9823 24C6.36719 24 0.98584 18.6171 0.98584 12C0.98584 5.38294 6.36719 0 12.9823 0C19.5974 0 24.9788 5.38294 24.9788 12C24.9788 18.6171 19.5974 24 12.9823 24ZM12.9823 0.814608C6.81672 0.814608 1.80021 5.8326 1.80021 12C1.80021 18.1674 6.81672 23.1854 12.9823 23.1854C19.1479 23.1854 24.1644 18.1674 24.1644 12C24.1644 5.8326 19.1479 0.814608 12.9823 0.814608Z" fill="#E1E2E6"/>
<path d="M20.2801 9.59769C20.1888 8.7171 19.9926 7.74364 19.2702 7.23207C18.7108 6.83535 17.9754 6.82069 17.2889 6.8215C15.8377 6.82231 14.3857 6.82395 12.9345 6.82476C11.5386 6.82639 10.1428 6.82721 8.74696 6.82884C8.16388 6.82965 7.59707 6.78404 7.05552 7.03657C6.59051 7.25325 6.22649 7.66543 6.00743 8.12406C5.70367 8.7619 5.64015 9.48446 5.6035 10.1899C5.53591 11.4746 5.54324 12.7625 5.62386 14.0463C5.68331 14.9831 5.83397 16.0184 6.55794 16.6155C7.19966 17.1442 8.10524 17.1703 8.93752 17.1711C11.5793 17.1735 14.222 17.176 16.8646 17.1776C17.2034 17.1784 17.5568 17.1719 17.9021 17.1344C18.5813 17.0611 19.2287 16.8664 19.6652 16.363C20.1058 15.8555 20.219 15.1492 20.2858 14.4804C20.4486 12.8577 20.447 11.2196 20.2801 9.59769ZM11.4067 14.2744V9.72478L15.345 11.9992L11.4067 14.2744Z" fill="#E1E2E6"/>
</svg>
